<?xml version="1.0" encoding="UTF-8" standalone="no"?>
<!DOCTYPE svg PUBLIC "-//W3C//DTD SVG 1.1//EN"
 "http://www.w3.org/Graphics/SVG/1.1/DTD/svg11.dtd">
<!-- Generated by graphviz version 10.0.1 (20240210.2158)
 -->
<!-- Title: TaskExecutionFlow Pages: 1 -->
<svg width="385pt" height="456pt"
 viewBox="0.00 0.00 384.62 455.50" xmlns="http://www.w3.org/2000/svg" xmlns:xlink="http://www.w3.org/1999/xlink">
<g id="graph0" class="graph" transform="scale(1 1) rotate(0) translate(4 451.5)">
<title>TaskExecutionFlow</title>
<polygon fill="white" stroke="none" points="-4,4 -4,-451.5 380.62,-451.5 380.62,4 -4,4"/>
<!-- A -->
<g id="node1" class="node">
<title>A</title>
<path fill="none" stroke="black" d="M305.5,-447.5C305.5,-447.5 225.75,-447.5 225.75,-447.5 219.75,-447.5 213.75,-441.5 213.75,-435.5 213.75,-435.5 213.75,-423.5 213.75,-423.5 213.75,-417.5 219.75,-411.5 225.75,-411.5 225.75,-411.5 305.5,-411.5 305.5,-411.5 311.5,-411.5 317.5,-417.5 317.5,-423.5 317.5,-423.5 317.5,-435.5 317.5,-435.5 317.5,-441.5 311.5,-447.5 305.5,-447.5"/>
<text text-anchor="middle" x="265.62" y="-424.45" font-family="Times,serif" font-size="14.00">Receive Prompt</text>
</g>
<!-- B -->
<g id="node2" class="node">
<title>B</title>
<path fill="none" stroke="black" d="M298,-374.5C298,-374.5 233.25,-374.5 233.25,-374.5 227.25,-374.5 221.25,-368.5 221.25,-362.5 221.25,-362.5 221.25,-350.5 221.25,-350.5 221.25,-344.5 227.25,-338.5 233.25,-338.5 233.25,-338.5 298,-338.5 298,-338.5 304,-338.5 310,-344.5 310,-350.5 310,-350.5 310,-362.5 310,-362.5 310,-368.5 304,-374.5 298,-374.5"/>
<text text-anchor="middle" x="265.62" y="-351.45" font-family="Times,serif" font-size="14.00">Execute Task</text>
</g>
<!-- A&#45;&gt;B -->
<g id="edge1" class="edge">
<title>A&#45;&gt;B</title>
<path fill="none" stroke="black" d="M265.62,-411.31C265.62,-403.73 265.62,-394.6 265.62,-386.04"/>
<polygon fill="black" stroke="black" points="269.13,-386.04 265.63,-376.04 262.13,-386.04 269.13,-386.04"/>
</g>
<!-- C -->
<g id="node3" class="node">
<title>C</title>
<path fill="none" stroke="black" d="M245.88,-301.5C245.88,-301.5 183.38,-301.5 183.38,-301.5 177.38,-301.5 171.38,-295.5 171.38,-289.5 171.38,-289.5 171.38,-277.5 171.38,-277.5 171.38,-271.5 177.38,-265.5 183.38,-265.5 183.38,-265.5 245.88,-265.5 245.88,-265.5 251.88,-265.5 257.88,-271.5 257.88,-277.5 257.88,-277.5 257.88,-289.5 257.88,-289.5 257.88,-295.5 251.88,-301.5 245.88,-301.5"/>
<text text-anchor="middle" x="214.62" y="-278.45" font-family="Times,serif" font-size="14.00">User Review</text>
</g>
<!-- B&#45;&gt;C -->
<g id="edge2" class="edge">
<title>B&#45;&gt;C</title>
<path fill="none" stroke="black" d="M253.28,-338.31C247.33,-330.03 240.06,-319.91 233.44,-310.69"/>
<polygon fill="black" stroke="black" points="236.42,-308.84 227.74,-302.76 230.73,-312.92 236.42,-308.84"/>
</g>
<!-- D -->
<g id="node4" class="node">
<title>D</title>
<path fill="none" stroke="black" d="M221.25,-213C221.25,-213 176,-213 176,-213 170,-213 164,-207 164,-201 164,-201 164,-189 164,-189 164,-183 170,-177 176,-177 176,-177 221.25,-177 221.25,-177 227.25,-177 233.25,-183 233.25,-189 233.25,-189 233.25,-201 233.25,-201 233.25,-207 227.25,-213 221.25,-213"/>
<text text-anchor="middle" x="198.62" y="-189.95" font-family="Times,serif" font-size="14.00">Satisfied?</text>
</g>
<!-- C&#45;&gt;D -->
<g id="edge3" class="edge">
<title>C&#45;&gt;D</title>
<path fill="none" stroke="black" d="M205.96,-265.1C203.62,-259.6 201.39,-253.42 200.12,-247.5 198.57,-240.24 197.87,-232.27 197.62,-224.82"/>
<polygon fill="black" stroke="black" points="201.12,-224.85 197.58,-214.87 194.12,-224.88 201.12,-224.85"/>
<text text-anchor="middle" x="240.38" y="-234.2" font-family="Times,serif" font-size="14.00">Review Result</text>
</g>
<!-- E -->
<g id="node5" class="node">
<title>E</title>
<path fill="none" stroke="black" d="M208,-124.5C208,-124.5 53.25,-124.5 53.25,-124.5 47.25,-124.5 41.25,-118.5 41.25,-112.5 41.25,-112.5 41.25,-100.5 41.25,-100.5 41.25,-94.5 47.25,-88.5 53.25,-88.5 53.25,-88.5 208,-88.5 208,-88.5 214,-88.5 220,-94.5 220,-100.5 220,-100.5 220,-112.5 220,-112.5 220,-118.5 214,-124.5 208,-124.5"/>
<text text-anchor="middle" x="130.62" y="-101.45" font-family="Times,serif" font-size="14.00">Confirm &amp; Pass to Next Task</text>
</g>
<!-- D&#45;&gt;E -->
<g id="edge4" class="edge">
<title>D&#45;&gt;E</title>
<path fill="none" stroke="black" d="M185.19,-176.91C175.47,-164.55 162.17,-147.63 151.13,-133.58"/>
<polygon fill="black" stroke="black" points="154.13,-131.74 145.2,-126.04 148.63,-136.06 154.13,-131.74"/>
<text text-anchor="middle" x="181.75" y="-145.7" font-family="Times,serif" font-size="14.00">Yes</text>
</g>
<!-- F -->
<g id="node6" class="node">
<title>F</title>
<path fill="none" stroke="black" d="M353.5,-124.5C353.5,-124.5 249.75,-124.5 249.75,-124.5 243.75,-124.5 237.75,-118.5 237.75,-112.5 237.75,-112.5 237.75,-100.5 237.75,-100.5 237.75,-94.5 243.75,-88.5 249.75,-88.5 249.75,-88.5 353.5,-88.5 353.5,-88.5 359.5,-88.5 365.5,-94.5 365.5,-100.5 365.5,-100.5 365.5,-112.5 365.5,-112.5 365.5,-118.5 359.5,-124.5 353.5,-124.5"/>
<text text-anchor="middle" x="301.62" y="-101.45" font-family="Times,serif" font-size="14.00">Modify &amp; Feedback</text>
</g>
<!-- D&#45;&gt;F -->
<g id="edge5" class="edge">
<title>D&#45;&gt;F</title>
<path fill="none" stroke="black" d="M218.97,-176.91C234.25,-164.08 255.39,-146.33 272.46,-131.99"/>
<polygon fill="black" stroke="black" points="274.4,-134.93 279.81,-125.82 269.9,-129.57 274.4,-134.93"/>
<text text-anchor="middle" x="267.88" y="-145.7" font-family="Times,serif" font-size="14.00">No</text>
</g>
<!-- G -->
<g id="node7" class="node">
<title>G</title>
<path fill="none" stroke="black" d="M249.25,-36C249.25,-36 12,-36 12,-36 6,-36 0,-30 0,-24 0,-24 0,-12 0,-12 0,-6 6,0 12,0 12,0 249.25,0 249.25,0 255.25,0 261.25,-6 261.25,-12 261.25,-12 261.25,-24 261.25,-24 261.25,-30 255.25,-36 249.25,-36"/>
<text text-anchor="middle" x="130.62" y="-12.95" font-family="Times,serif" font-size="14.00">Execute Next Task / Archive if Execute Task</text>
</g>
<!-- E&#45;&gt;G -->
<g id="edge7" class="edge">
<title>E&#45;&gt;G</title>
<path fill="none" stroke="black" d="M130.62,-88.41C130.62,-76.76 130.62,-61.05 130.62,-47.52"/>
<polygon fill="black" stroke="black" points="134.13,-47.86 130.63,-37.86 127.13,-47.86 134.13,-47.86"/>
<text text-anchor="middle" x="185.38" y="-57.2" font-family="Times,serif" font-size="14.00">Next Task / Archive</text>
</g>
<!-- F&#45;&gt;B -->
<g id="edge6" class="edge">
<title>F&#45;&gt;B</title>
<path fill="none" stroke="black" d="M299.1,-124.92C292.98,-167.05 277.34,-274.82 269.8,-326.72"/>
<polygon fill="black" stroke="black" points="266.35,-326.16 268.37,-336.56 273.27,-327.17 266.35,-326.16"/>
<text text-anchor="middle" x="330.12" y="-234.2" font-family="Times,serif" font-size="14.00">Modify &amp; Rerun</text>
</g>
</g>
</svg>
